<svg width="24" height="24" viewBox="0 0 24 24" fill="none" xmlns="http://www.w3.org/2000/svg">
<path d="M0 14.7095V17.8837C0 19.1998 1.04516 20.1288 2.32258 20.1288H21.6774C22.9548 20.1288 24 19.1998 24 17.8837V14.7095H0Z" fill="#D25050"/>
<path d="M21.6774 3.87109H2.32258C1.04516 3.87109 0 4.80013 0 6.11625V9.29045H24V6.11625C24 4.80013 22.9548 3.87109 21.6774 3.87109Z" fill="white"/>
<path d="M21.6774 3.87109H2.32258C1.04516 3.87109 0 4.80013 0 6.11625V9.29045H24V6.11625C24 4.80013 22.9548 3.87109 21.6774 3.87109Z" fill="white"/>
<path d="M24 9.29053H0V14.7099H24V9.29053Z" fill="#2264A0"/>
</svg>
